<svg width="12" height="12" viewBox="0 0 12 12" fill="none" xmlns="http://www.w3.org/2000/svg">
<path d="M0.145899 0.854021C0.0994111 0.807533 0.062535 0.752344 0.0373759 0.691605C0.0122168 0.630865 -0.000732421 0.565765 -0.000732422 0.500021C-0.000732422 0.434277 0.0122168 0.369177 0.0373759 0.308438C0.062535 0.247698 0.0994111 0.192509 0.145899 0.146021C0.192387 0.0995332 0.247576 0.0626571 0.308316 0.037498C0.369055 0.0123389 0.434155 -0.000610352 0.499899 -0.000610352C0.565643 -0.000610351 0.630743 0.0123389 0.691483 0.037498C0.752222 0.0626571 0.807411 0.0995332 0.853899 0.146021L5.9999 5.29302L11.1459 0.146021C11.1924 0.0995332 11.2476 0.0626571 11.3083 0.037498C11.3691 0.0123389 11.4342 -0.000610352 11.4999 -0.000610352C11.5656 -0.000610352 11.6307 0.0123389 11.6915 0.037498C11.7522 0.0626571 11.8074 0.0995332 11.8539 0.146021C11.9004 0.192509 11.9373 0.247698 11.9624 0.308438C11.9876 0.369177 12.0005 0.434277 12.0005 0.500021C12.0005 0.565765 11.9876 0.630865 11.9624 0.691605C11.9373 0.752344 11.9004 0.807533 11.8539 0.854021L6.7069 6.00002L11.8539 11.146C11.9004 11.1925 11.9373 11.2477 11.9624 11.3084C11.9876 11.3692 12.0005 11.4343 12.0005 11.5C12.0005 11.5658 11.9876 11.6309 11.9624 11.6916C11.9373 11.7523 11.9004 11.8075 11.8539 11.854C11.8074 11.9005 11.7522 11.9374 11.6915 11.9625C11.6307 11.9877 11.5656 12.0007 11.4999 12.0007C11.4342 12.0007 11.3691 11.9877 11.3083 11.9625C11.2476 11.9374 11.1924 11.9005 11.1459 11.854L5.9999 6.70702L0.853899 11.854C0.807411 11.9005 0.752222 11.9374 0.691483 11.9625C0.630743 11.9877 0.565643 12.0007 0.499899 12.0007C0.434155 12.0007 0.369055 11.9877 0.308316 11.9625C0.247576 11.9374 0.192387 11.9005 0.145899 11.854C0.0994111 11.8075 0.062535 11.7523 0.0373759 11.6916C0.0122168 11.6309 -0.000732422 11.5658 -0.000732422 11.5C-0.000732422 11.4343 0.0122168 11.3692 0.0373759 11.3084C0.062535 11.2477 0.0994111 11.1925 0.145899 11.146L5.2929 6.00002L0.145899 0.854021Z" fill="white"/>
</svg>
